<?xml version="1.0"?>
<svg xmlns="http://www.w3.org/2000/svg" height="512px" viewBox="0 0 512 512" width="512px"><g><path d="m37.957031 181h113.859375c-.339844-4.894531-.800781-9.660156-.800781-14.925781 0-41.265625 11.21875-75.664063 28.996094-103.527344-4.59375-.871094-9.246094-1.546875-14.011719-1.546875-24.464844 0-47.195312 12.101562-61.085938 31.714844-4.566406-1.144532-9.226562-1.714844-13.914062-1.714844-33.089844 0-60 26.910156-60 60 0 6.839844 1.15625 13.5625 3.414062 19.996094zm0 0" data-original="#000000" class="active-path" data-old_color="#000000" fill="#F45E39"/><path d="m135 241c-24.464844 0-47.195312 12.101562-61.085938 31.714844-4.566406-1.144532-9.226562-1.714844-13.914062-1.714844-33.089844 0-60 26.910156-60 60 0 6.839844 1.15625 13.5625 3.414062 19.996094l3.542969 10.003906h188.65625l4.335938-7.472656c6.578125-11.351563 10.050781-24.3125 10.050781-37.527344 0-41.351562-33.648438-75-75-75zm0 0" data-original="#000000" class="active-path" data-old_color="#000000" fill="#F45E39"/><path d="m346 0c48.722656 0 75 86.003906 75 166 0 51.695312-7.808594 77.433594-16.054688 104.691406-5.132812 16.90625-10.328124 34.78125-14.402343 60.308594h44.167969c8.289062-18.808594 19.449218-34.292969 31.097656-50.023438 22.222656-29.988281 46.191406-60.984374 46.191406-114.976562 0-90.980469-75.019531-166-166-166zm0 0" data-original="#000000" class="active-path" data-old_color="#000000" fill="#F45E39"/><path d="m376.234375 261.976562c7.925781-26.148437 14.765625-48.71875 14.765625-95.976562 0-82.410156-26.644531-135-45-135-20.800781 0-44.984375 59.003906-44.984375 135.074219 0 48.542969 7 70.414062 15.117187 95.726562 5.707032 17.835938 11.953126 38.40625 16.207032 69.199219h27.890625c4.507812-30.164062 10.519531-50.953125 16.003906-69.023438zm0 0" data-original="#000000" class="active-path" data-old_color="#000000" fill="#F45E39"/><path d="m181.015625 166.074219c0 56.015625 22.734375 84.769531 44.707031 112.585937 12.5 15.8125 24.421875 31.476563 32.910156 52.339844h43.464844c-3.863281-25.898438-9.230468-43.472656-14.542968-60.042969-8.496094-26.558593-16.539063-51.652343-16.539063-104.882812 0-82.03125 25.75-166.074219 74.984375-166.074219-66.53125 0-164.984375 53.472656-164.984375 166.074219zm0 0" data-original="#000000" class="active-path" data-old_color="#000000" fill="#F45E39"/><path d="m425.15625 361h-30.414062c-1.660157 9.335938-2.953126 19.121094-3.332032 30h-90.84375c-.359375-10.945312-1.511718-20.71875-2.984375-30h-30.363281c1.683594 9.09375 2.96875 18.824219 3.375 30h-29.59375v30h30v91h150v-91h30v-30h-29.605469c.429688-11.054688 1.839844-20.851562 3.761719-30zm0 0" data-original="#000000" class="active-path" data-old_color="#000000" fill="#F45E39"/></g> </svg>
