<?xml version="1.0"?>
<svg xmlns="http://www.w3.org/2000/svg" height="512px" viewBox="0 0 512 512" width="512px"><g><path d="m255.113281 318.917969-62.023437-62.027344c-13.019532 20.203125-.835938 41.851563 9.6875 52.371094 10.515625 10.515625 32.171875 22.6875 52.335937 9.65625zm0 0" data-original="#000000" class="active-path" data-old_color="#000000" fill="#F45E39"/><path d="m181.589844 330.449219c-24.4375-24.4375-34.1875-63.566407-9.769532-94.828125l-41.269531-41.265625c-95.160156 116.457031-124.136719 264.8125-127.953125 293.859375l104.972656-104.972656 21.1875 21.1875-104.972656 104.972656c29.046875-3.816406 177.398438-32.792969 293.859375-127.953125l-41.269531-41.269531c-31.285156 24.414062-70.375 14.683593-94.785156-9.730469zm0 0" data-original="#000000" class="active-path" data-old_color="#000000" fill="#F45E39"/><path d="m431.578125 368.660156h-42.371094l-245.871093-245.867187v-42.371094l-79.773438-80.421875-63.5625 63.5625 80.179688 80.21875h42.371093l245.667969 245.667969v42.371093l80.21875 80.179688 63.5625-63.5625zm0 0" data-original="#000000" class="active-path" data-old_color="#000000" fill="#F45E39"/><path d="m503.839844 24.609375 1.894531-18.34375-18.34375 1.894531c-4.21875.4375-59.328125 6.746094-129.601563 32.070313l113.980469 113.980469c25.324219-70.277344 31.628907-125.382813 32.070313-129.601563zm0 0" data-original="#000000" class="active-path" data-old_color="#000000" fill="#F45E39"/><path d="m290.027344 165.820312c31.511718-.023437 56.175781 24.640626 56.152344 56.152344-.011719 15.613282-5.867188 31.84375-13.769532 47.117188l48.792969 48.796875c35.300781-43.203125 60.5-89.929688 78.652344-133.214844l-132.527344-132.53125c-43.289063 18.15625-90.015625 43.351563-133.214844 78.652344l48.796875 48.796875c15.273438-7.902344 31.503906-13.757813 47.117188-13.769532zm0 0" data-original="#000000" class="active-path" data-old_color="#000000" fill="#F45E39"/><path d="m290.058594 195.789062c-7.625.003907-16.121094 2.363282-24.839844 6.113282l44.878906 44.878906c3.75-8.722656 6.105469-17.214844 6.113282-24.839844.011718-7.726562-2.347657-13.6875-7.40625-18.746094-5.058594-5.058593-11.019532-7.417968-18.746094-7.40625zm0 0" data-original="#000000" class="active-path" data-old_color="#000000" fill="#F45E39"/></g> </svg>
