<svg width="64" height="64" xmlns="http://www.w3.org/2000/svg">
 <title/>

 <desc/>
 <g>
  <title>background</title>
  <rect fill="none" id="canvas_background" height="402" width="582" y="-1" x="-1"/>
 </g>
 <g>
  <title>Layer 1</title>
  <path id="Rectangle" fill="#000000" d="m15.5,19l32,0c1.38071,0 2.5,1.11929 2.5,2.5c0,1.38071 -1.11929,2.5 -2.5,2.5l-32,0c-1.38071,0 -2.5,-1.11929 -2.5,-2.5c0,-1.38071 1.11929,-2.5 2.5,-2.5z"/>
  <path id="Rectangle" fill="#000000" d="m14.82432,29l23.35136,0c1.00754,0 1.82432,1.11929 1.82432,2.5c0,1.38071 -0.81678,2.5 -1.82432,2.5l-23.35136,0c-1.00754,0 -1.82432,-1.11929 -1.82432,-2.5c0,-1.38071 0.81678,-2.5 1.82432,-2.5z"/>
 </g>
</svg>