<?xml version="1.0"?>
<svg xmlns="http://www.w3.org/2000/svg" height="512px" viewBox="0 -25 512 512" width="512px"><g><path d="m288.53125 100c27.570312 0 50-22.429688 50-50s-22.429688-50-50-50-50 22.429688-50 50 22.429688 50 50 50zm0 0" data-original="#000000" class="active-path" data-old_color="#000000" fill="#F45E39"/><path d="m320.449219 255.941406 66.21875 114.425782h97.96875l-74.824219-129.601563-61.078125 28.261719zm0 0" data-original="#000000" class="active-path" data-old_color="#000000" fill="#F45E39"/><path d="m265.1875 220.34375-74.429688 34.4375-75.4375-34.902344-86.886718 150.488282h323.574218zm0 0" data-original="#000000" class="active-path" data-old_color="#000000" fill="#F45E39"/><path d="m250.097656 194.269531-60.066406-103.796875-59.652344 103.316406 60.378906 27.9375zm0 0" data-original="#000000" class="active-path" data-old_color="#000000" fill="#F45E39"/><path d="m0 400.367188h512v61.632812h-512zm0 0" data-original="#000000" class="active-path" data-old_color="#000000" fill="#F45E39"/><path d="m348.734375 235.972656 46.019531-21.292968-46.019531-79.707032-46.019531 79.707032zm0 0" data-original="#000000" class="active-path" data-old_color="#000000" fill="#F45E39"/></g> </svg>
