<?xml version="1.0"?>
<svg xmlns="http://www.w3.org/2000/svg" id="Layer_1" enable-background="new 0 0 512 512" height="512px" viewBox="0 0 512 512" width="512px"><g><path d="m391 91h-270c-66.167 0-121 53.833-121 120s54.833 120 121 120h84.272l30-60h41.455l30 60h84.273c66.167 0 121-53.833 121-120s-54.833-120-121-120zm-250.605 175.605-75-75 21.211-21.211 75 75zm30-60-45-45 21.211-21.211 45 45z" data-original="#000000" class="active-path" data-old_color="#000000" fill="#F45E39"/><path d="m452 73.715v-73.715h-91v61h30c21.354 0 42.592 4.634 61 12.715z" data-original="#000000" class="active-path" data-old_color="#000000" fill="#F45E39"/><path d="m331 361h-150v30h30c0 66.167 53.833 121 120 121s121-54.833 121-121v-42.715c-18.408 8.081-39.646 12.715-61 12.715h-30v30c0 16.538-13.462 30-30 30s-30-13.462-30-30h30z" data-original="#000000" class="active-path" data-old_color="#000000" fill="#F45E39"/></g> </svg>
